<svg width="1815" height="985" viewBox="0 0 1815 985" fill="none" xmlns="http://www.w3.org/2000/svg">
<g clip-path="url(#clip0)">
<path d="M1617.16 603.884L1611.48 604.439L1619.36 603.61L1623.17 603.991L1627.69 601.221L1631.62 605.082L1636.19 606.19L1637.97 603.001L1631.93 600.242L1631.15 599.716L1632.81 600.173L1638.79 601.904L1641.07 603.882L1640.4 605.41L1641.6 607.426L1643.94 609.007L1650.16 610.571L1650.1 612.394L1659.04 608.877L1665.51 604.574L1673.02 596.357L1673.87 593.636L1672.36 580.982L1672.78 582.472L1676.39 581.396L1677.48 578.508L1678.28 581.686L1684 578.083L1680.89 585.751L1678.96 587.085L1680.34 590.758L1680.87 597.152L1703.26 601.399L1704.98 612.659L1707.77 616.956L1711.67 618.165L1716.87 620.795L1726.69 625.558L1728.61 631.35L1731.65 626.929L1736.1 628.833L1731.72 623.681L1732.62 621.987L1731.01 619.906L1739.89 613.936L1739.86 611.285L1738.97 607.279L1736.49 602.418L1740.06 604.391L1744.14 607.257L1749.6 602.594L1757.68 603.223L1765.82 596.527L1761.55 594.855L1759.06 592.844L1758.92 589.564L1752.74 580.675L1750.76 576.706L1741.27 572.604L1739.7 574.4L1736.13 573.852L1735.07 575.116L1736.28 571.432L1734.96 570.211L1733.43 568.959L1725.43 569.158L1727.29 571.072L1725.77 579.596L1726.92 587.512L1726.36 582.742L1723.47 584.743L1722.54 583.786L1718.83 577.107L1720.85 575.176L1721.25 569.739L1720.64 558.242L1718.9 558.382L1719.8 556.688L1707.27 541.529L1702.7 537.572L1699.97 537.153L1698.47 535.701L1694.21 528.328L1695.76 535.083L1692.44 528.667L1690.43 524.898L1685.21 519.617L1683.56 516.31L1675.94 511.272L1675.58 509.384L1667.99 502.722L1667.6 501.034L1660.96 497.98L1654.08 493.667L1646.61 487.634L1637.83 484.457L1627.13 482.613L1624.34 482.592L1622.35 481.473L1618.32 481.06L1618.05 482.85L1613.19 478.032L1601.35 473.774L1593.8 472.414L1588.37 482.578L1592.96 487.762L1594.86 499.254L1592.72 500.555L1590.43 504.277L1588.11 503.922L1587.54 504.852L1578.44 499.588L1568.88 486.108L1568.32 478.487L1562.13 478.149L1549.34 480.059L1538.47 476.559L1526.69 471.903L1520.31 471.333L1513.79 470.334L1503.93 481.246L1499.55 494.421L1496.17 496.755L1500.38 484.774L1495.42 467.926L1490.14 464.469L1491.74 458.198L1492.65 455.079L1492.74 440.43L1458.26 423.741L1453.93 423.892L1434.68 425.829L1425.75 426.497L1418.87 420.759L1419.43 412.903L1410.3 407.838L1405.15 410.511L1403.18 403.692L1404.69 399.444L1394.32 396.836L1395.05 393.486L1401.67 393.889L1393.28 378.348L1361.29 391.773L1358.86 387.939L1360.85 384.782L1365.82 381.878L1368.44 378.818L1371.57 379.501L1368.82 386.207L1371.64 374.827L1355.85 375.259L1354.68 373.043L1363.02 370.655L1376 373.052L1337.19 356.514L1321.47 349.422L1323.14 356.805L1320.04 360.199L1304.15 365.502L1305.19 368.514L1310.52 367.497L1311.51 369.481L1306.38 374.805L1307.79 379.704L1307.65 389.051L1304.91 388.631L1300.13 387.492L1295.39 384.728L1294.4 384.169L1289.82 385.911L1292.04 391.138L1290.38 392.106L1287.04 392.817L1288.24 396.258L1286.73 396.231L1285.54 392.79L1283.26 390.811L1281.79 387.735L1275.69 383.95L1265.81 379.584L1263.55 380.256L1258.19 384.322L1257.32 384.392L1245.78 378.144L1235.69 373.746L1232.51 384.663L1219.53 394.892L1217.64 391.752L1211.67 385.745L1208.29 378.303L1203.85 369.274L1209.76 365.902L1204.47 363.87L1197.07 347.463L1199.93 347.087L1203.65 352.34L1210.38 354.797L1211.56 351.312L1211.36 347.005L1207.49 344.171L1199.89 337.509L1209.45 338.363L1205.52 334.503L1203.09 330.669L1212.4 324.763L1210.39 323.844L1210.39 322.419L1209.04 319.972L1206.1 319.52L1206.04 317.068L1202.98 315.988L1203.1 312.342L1193.34 310.03L1191.83 312.853L1189.66 314.354L1187.62 312.208L1186.15 310.558L1185.52 309.036L1182 309.515L1180.13 310.45L1180.47 306.837L1177.83 305.82L1175.76 302.449L1170.57 296.969L1166.24 297.12L1163.34 301.971L1161.12 299.594L1159.55 302.816L1158.16 307.693L1159.06 308.85L1159.73 315.674L1155.63 321.358L1148.93 320.127L1148.23 321.853L1146.13 322.956L1135.76 318.924L1123.59 315.429L1128.69 320.08L1118.27 312.171L1110.84 303.088L1116.32 299.652L1110.82 294.737L1096.88 290.156L1079.05 288.442L1067.34 294.59L1063.75 302.592L1064.22 317.735L1060.21 308.771L1062.89 294.111L1061.88 275.424L1053.75 280.695L1047.6 271.607L1044.39 271.521L1029.98 274.201L1031.14 279.266L1040.85 280.551L1032.9 284.628L1025.83 287.209L1023.97 286.72L1015.15 290.867L1010.69 291.814L992.974 295.004L984.063 299.748L996.902 286.238L1008.92 278.101L1015.29 277.245L1026.56 266.957L1032.14 258.648L1039.4 254.873L1046.56 251.694L1056.46 247.509L1065.98 240.211L1075.51 227.213L1075.49 223.137L1070.99 220.206L1069.79 215.34L1068.45 210.043L1075.68 217.668L1077.51 219.781L1078.62 209.768L1078.48 205.062L1077.35 196.948L1075.61 195.663L1074.28 200.142L1071.63 200.551L1070.98 194.953L1065.94 188.479L1063.08 177.654L1060.05 174.949L1055.27 172.384L1044.69 171.17L1032.42 169.697L1022.82 176.167L1014.1 175.442L1015.42 173.812L1019.32 168.096L1023.29 164.632L1024.2 162.938L1025.49 161.508L1023.64 156.743L1019.34 155.27L1017.42 155.179L1007.71 155.319L1011.2 152.189L1007.11 150.749L995.571 148.776L1012.46 141.181L1016.22 139.111L1014.43 132.523L1003.47 125.345L1000.41 122.839L992.914 125.357L980.838 133.892L967.755 148.993L966.145 156.689L966.572 167.955L972.876 173.197L965.276 169.385L959.747 167.52L944.114 165.531L949.686 175.549L948.119 191.397L949.244 185.46L948.774 180.093L945.892 177.819L942.708 176.109L938.89 175.727L934.944 178.992L929.86 179.842L929.012 182.563L926.188 181.316L920.318 184.489L919.003 180.418L914.911 181.827L911.693 181.742L915.432 177.02L907.079 173.907L901.998 173.332L899.171 173.509L893.368 173.435L889.244 175.043L888.619 172.096L885.127 173.801L884.456 178.178L887.073 177.968L888.574 179.42L894.618 179.328L872.026 183.401L866.427 186.208L864.384 185.488L860.504 185.504L853.493 187.688L850.12 190.022L846.244 188.614L843.713 191.077L841.334 192.545L838.983 195.239L829.142 199.026L828.443 202.177L826.635 204.14L825.491 204.576L821.749 210.723L819.459 213.019L817.294 213.095L815.016 209.691L812.701 209.336L814.162 215.262L820.042 221.865L821.149 224.479L818.801 225.748L817.931 224.393L813.97 220.731L812.308 224.549L812.573 227.034L820.194 234.922L817.727 235.562L822.076 240.913L819.271 245.167L817.822 247.592L810.533 267.043L806.16 259.042L808.652 247.001L811.256 238.44L801.869 240.667L793.059 240.539L753.032 241.735L752.242 245.484L750.665 251.555L752.184 258.508L760.556 281.174L767.985 294.532L769.15 312.224L769.577 323.49L762.865 340.586L760.916 337.843L764.801 320.925L762.816 321.232L755.957 336.472L756.665 329.046L760.611 311.73L759.278 302.158L755.932 291.666L746.176 283.654L725.329 273.535L718.674 277.607L719.839 281.247L714.99 284.781L706.726 296.547L717.266 303.661L718.766 305.113L721.523 309.609L723.475 310.926L726.897 313.894L725.152 314.034L717.251 310.787L708.355 308.405L694.482 299.151L696.067 288.804L699.339 277.291L701.645 267.869L701.239 260.679L699.327 254.888L696.957 266.132L677.73 286.198L677.901 304.756L675.025 327.735L670.936 341.77L670.85 353.569L677.608 357.252L695.797 359.429L699.429 362.429L706.349 374.894L707.142 383.772L700.658 392.35L704.257 396.974L708.825 398.082L709.454 399.604L712.821 400.12L708.999 401.163L701.155 398.943L697.831 392.528L699.597 382.412L700.396 374.389L696.773 367.113L684.059 364.35L673.363 373.708L669.677 396.359L653.282 413.396L647.5 417.398L635.92 418.474L618.555 410.925L617.756 404.897L625.392 405.66L632.093 408.316L631.12 413.258L636.567 411.445L638.701 411.569L638.866 404.874L645.218 401.367L647.567 400.098L650.827 394.284L658.356 388.718L659.695 381.388L660.905 363.653L659.405 348.149L661.872 333.457L662.796 323.213L666.272 314.582L664.055 296.728L667.184 281.934L674.838 260.095L671.486 252.454L668.272 250.943L660.462 247.098L646.845 244.604L642.691 246.411L637.044 257.968L620.536 285.578L610.051 294.968L611.436 294.366L610.317 297.453L613.946 301.878L612.598 313.483L611.827 322.733L606.249 329.617L606.539 334.752L609.671 332.585L617.508 337.655L619.942 352.691L624.48 353.997L622.062 359.94L614.221 370.346L611.348 363.796L603.465 351.998L592.806 344.255L590.976 342.142L584.782 341.804L578.881 331.124L554.517 320.059L544.828 322.851L544.743 334.649L547.53 338.946L535.966 346.949L528.617 352.746L530.828 345.346L528.946 339.356L527.024 337.84L521.691 343.132L520.105 339.426L515.979 342.46L506.201 344.423L503.737 343.638L491.587 344.22L484.177 350.416L480.843 348.276L475.61 348.695L474.954 345.948L476.519 345.576L478.58 337.746L478.44 333.041L471.221 333.768L465.711 337.403L461.938 343.749L461.585 340.436L456.925 339.926L449.703 342.078L427.044 349.398L427.846 354.001L426.462 354.604L420.085 355.459L417.066 361.106L412.022 371.534L402.58 371.308L395.617 364.743L393.391 351.165L400.494 348.384L406.947 340.005L403.385 332.331L390.555 327.514L379.228 322.723L385.571 337.544L384.724 340.265L384.66 342.088L382.937 346.304L381.552 360.958L383.035 370.96L377.622 385.201L371.791 383.9L370.647 384.335L370.333 376.549L364.023 374.156L349.424 380.879L334.389 394.663L333.874 410.672L329.394 410.393L317.616 405.737L317.229 404.048L306.153 394.816L300.938 400.737L310.959 411.233L298.495 418.08L289.102 409.105L284.424 403.094L283.704 388.117L286.763 377.996L288.54 376.232L287.552 374.248L283.807 367.768L279.754 364.703L278.284 363.052L279.37 361.59L277.9 359.939L274.054 358.331L277.482 358.449L274.448 357.17L276.046 355.174L273.164 352.9L270.108 347.544L273.929 346.5L279.721 352.276L284.768 354.475L287.076 357.68L291.312 359.551L303.716 367.154L339.067 372.572L354.322 354.545L353.55 349.743L352.51 343.881L349.543 339.353L346.304 335.191L342.916 330.599L332.437 323.087L331.354 323.125L325.118 314.634L304.044 297.557L287.963 294.277L286.335 296.472L286.313 292.395L282.227 290.955L282.172 288.502L277.362 287.562L274.996 283.33L276.835 281.168L282.071 279.323L275.88 277.559L271.879 278.372L268.927 280.77L265.325 277.571L257.198 281.417L247.107 289.645L239.303 297.002L241.877 316.743L245.482 332.569L240.102 359.237L237.443 379.398L236.617 386.195L238.639 396.891L238.276 411.906L234.681 448.011L207.417 471.325L213.611 471.663L211.714 472.798L217.683 480.23L226.152 485.397L215.237 484.946L209.943 485.764L207.954 487.496L204.578 491.255L203.188 494.707L196.79 505.538L197.394 518.461L193.115 522.489L195.683 531.028L194.17 535.277L197.485 545.967L201.895 550.92L207.781 554.673L219.379 559.098L220.864 567.675L220.578 575.166L225.668 585.517L230.197 591.099L233.762 597.347L227.26 600.424L219.56 601.484L220.752 606.351L220.807 608.803L227.141 613.846L235.171 613.448L243.161 617.523L243.747 624.945L246.528 632.091L253.369 639.453L260.27 646.416L263.844 648.389L275.65 654.272L280.31 654.782L283.073 656.427L287.489 658.53L291.301 661.761L295.116 663.568L290.471 669.984L291.307 672.963L290.008 675.819L290.932 679.626L283.012 684.929L274.827 687.747L272.921 693.157L275.989 692.813L281.792 692.888L283.412 694.969L274.321 699.481L266.983 699.579L273.552 707.306L268.286 709.35L265.276 710.721L263.705 713.942L264.397 713.641L259.073 714.658L258.74 715.422L254.745 713.384L254.498 716.401L260.649 722.638L266.294 726.558L276.468 736.06L291.787 744.313L316.538 757.067L330.875 760.486L341.076 771.214L345.968 775.832L358.477 775.713L357.081 767.964L355.104 749.944L353.119 750.251L349.66 736.28L351.707 735.575L353.033 733.946L357.44 726.272L357.562 725.476L359.547 725.169L362.945 725.486L366.406 723.98L369.352 724.432L369.806 722.872L370.98 722.237L371.343 721.275L372.667 721.07L374.564 719.935L371.383 716.801L373.075 712.783L366.339 699.125L360.175 698.587L358.147 690.742L358.83 680.664L362.977 667.655L372.059 667.418L378.802 664.175L386.908 656.253L398.167 650.24L400.787 648.605L405.834 650.804L410.192 651.879L416.508 651.422L427.2 657.541L433.885 667.322L446.026 671.015L451.778 667.213L455.267 666.933L459.899 666.218L465.94 667.551L473.126 668.448L480.808 675.939L483.119 677.718L488.658 675.309L501.384 672.372L502.265 668.027L497.581 664.865L493.348 661.569L491.612 657.433L500.447 646.161L508.718 645.596L507.583 641.757L506.028 637.852L505.22 636.099L502.698 634.287L504.21 630.039L508.992 629.754L517.617 632.501L521.801 630.495L528.599 629.704L543.423 629.939L549.535 626.599L553.414 626.583L575.13 624.005L577 621.644L580.04 620.074L583.441 618.966L585.633 620.116L596.542 623.418L601.034 632.048L601.263 637.582L600.233 641.497L605.011 642.636L610.123 643.012L612.556 643.996L613.877 645.217L618.174 646.69L624.154 648.421L620.019 655.73L626.817 654.939L628.829 655.858L632.352 653.954L635.993 652.68L645.023 648.565L655.523 646.101L654.648 647.596L657.298 659.814L677.32 704.834L681.568 701.005L687.073 700.219L687.939 702.999L690.577 706.866L702.452 708.075L711.202 708.601L722.059 722.076L725.862 729.583L730.729 731.551L735.392 730.637L737.466 731.158L742.294 737.6L748.366 738.734L757.542 736.475L762.687 735.227L766.48 732.957L778.219 728.036L790.256 723.975L796.059 724.05L800.295 725.921L812.131 731.604L818.761 738.933L829.252 740.745L831.625 742.127L836.583 743.498L844.403 743.067L848.721 734.564L847.288 729.864L850.642 722.029L854.89 718.2L860.611 714.596L867.428 719.307L884.07 727.356L888.474 735.158L888.461 740.859L897.318 747.714L905.284 749.139L923.746 749.525L931.947 753.632L940.141 760.59L946.201 767.425L966.698 772.806L974.249 771.316L988.055 769.766L995.944 764.663L1009.47 767.754L1023.98 772.829L1035.58 777.254L1049.25 769.574L1049.74 764.965L1052.45 761.308L1063.61 748.966L1066.36 739.409L1067.04 730.757L1093.33 727.862L1108.62 736.314L1113.76 737.916L1115.68 740.858L1118.8 744.39L1120.5 750.15L1120.44 751.973L1121.48 754.984L1123.36 763.825L1123.29 765.648L1124.16 767.003L1126.18 777.699L1127.1 784.356L1138 793.357L1141.42 796.326L1143.59 796.25L1151.99 804.665L1154.08 810.688L1153.43 817.717L1161.24 822.986L1172.73 821.082L1178.48 820.129L1190.74 821.602L1188.92 829.265L1184.4 833.46L1179.99 842.559L1174.26 851.863L1170.31 856.553L1157.26 854.553L1149.16 873.676L1140.27 883.922L1142.06 889.084L1142.89 885.137L1145.98 886.018L1147.42 886.443L1149.45 883.087L1152.43 880.49L1153.63 879.656L1154.68 881.242L1159.1 880.495L1158.91 884.539L1162.25 885.254L1167 888.017L1187.13 878.885L1190.05 876.685L1222.38 847.02L1240.26 827.358L1246.92 817.586L1247.11 814.967L1249.32 806.142L1251.38 802.588L1254.84 787.03L1256.38 784.008L1262.83 777.054L1262.9 772.381L1263.31 764.094L1262.47 761.115L1265.45 758.517L1263.32 755.543L1263.3 754.317L1256.94 746.622L1252.53 740.245L1243.33 738.428L1242.27 743.967L1237.69 748.56L1238.45 745.011L1229.73 745.71L1229.41 739.349L1233.2 737.079L1228.2 740.182L1226.45 743.172L1224.21 738.144L1225.76 730.847L1224.2 729.793L1214.04 728.643L1214.23 721.749L1233.35 710.831L1243.47 703.828L1247.99 696.783L1252.15 693.551L1258.32 689.813L1262.42 686.979L1269.83 680.783L1284.23 668.328L1297.32 661.578L1310.01 663.115L1322.25 664.786L1322.78 666.905L1327.32 668.212L1334.54 667.485L1339.86 669.318L1342.36 668.479L1348.78 671.501L1352.45 671.452L1352 670.162L1352.31 666.747L1355.5 668.457L1362.06 664.982L1370.02 669.257L1369.81 670.65L1371.85 669.945L1378.91 674.489L1383.29 678.215L1372.83 679.055L1381.09 682.765L1385.33 681.786L1389.68 684.286L1392.43 681.855L1395.98 679.752L1397.99 680.672L1404.09 681.607L1408.27 682.451L1412.13 679.783L1406.66 676.095L1405.82 677.391L1403.47 677.235L1404.74 674.578L1405.95 669.469L1408.34 666.576L1423.07 654.782L1431.47 646.295L1439.61 639.6L1448.18 639.895L1454.04 639.572L1459.72 641.867L1461.79 643.814L1468.08 640.705L1464.03 648.842L1462.52 651.665L1461.22 657.371L1463.89 661.038L1465.3 663.087L1470.95 661.307L1480.95 653.675L1481.89 653.207L1489.23 650.26L1491.01 648.496L1493.38 651.303L1494.14 647.753L1495.17 640.988L1497.05 635.777L1503.91 633.163L1505.78 632.227L1517.85 637.744L1515.27 637.755L1510.43 637.013L1504.43 642.407L1500.29 652.566L1497.48 661.095L1495 666.01L1492.77 666.484L1484.86 668.936L1473.53 678.197L1463.66 685.033L1453.8 694.52L1448.13 702.001L1444.28 703.243L1437.8 708.971L1434.5 708.057L1431.4 707.175L1424.87 709.026L1422.25 710.661L1419.35 721.212L1415.22 724.245L1410 731.591L1404.42 783.48L1405.81 792.654L1405.98 814.062L1425.65 796.713L1426.38 793.363L1427.41 789.448L1428.64 788.415L1440.5 786.973L1441.2 782.396L1444.04 775.093L1464.75 766.455L1469.12 744.929L1472.86 743.057L1474.82 740.099L1477.4 740.088L1475.98 742.315L1475.7 746.955L1480.67 744.051L1477.73 729.548L1483.55 719.647L1476.88 716.792L1479.89 701.369L1482.42 698.906L1484.38 695.948L1486.43 695.244L1487.9 694.044L1488.82 688.075L1493.49 682.885L1494.88 680.858L1498.03 684.192L1501.13 680.798L1507.02 684.551L1508.26 680.669L1510.94 680.061L1518.07 677.081L1517.68 676.817L1518.66 681.652L1523.65 682.824L1528.59 680.118L1530.1 678.72L1534.55 677.773L1548.92 679.568L1552.1 684.128L1553.9 686.441L1556.23 692.297L1561 685.085L1562.84 682.923L1569.46 679.051L1571.44 678.744L1575.18 676.872L1576.95 675.108L1579.27 674.038L1579.76 672.279L1583.43 670.806L1584.16 668.88L1589.42 668.262L1591.86 664.97L1597.25 663.556L1599.41 663.48L1603.18 661.41L1607.48 661.458L1609.95 659.392L1617.8 657.338L1627.85 653.583L1627.95 650.136L1629.45 650.163L1632.04 650.152L1643.36 659.218L1649.58 657.932L1651.7 651.129L1651.78 645.031L1647.82 639.944L1647.85 636.895L1646.01 639.057L1643.89 636.083L1644.49 634.954L1645.96 635.18L1645.94 633.954L1647.26 632.324L1645.05 627.097L1645.71 626.995L1646.61 625.301L1646.39 616.917L1645.15 619.375L1640.09 608.825L1633.17 610.411L1626.83 609.643L1629.51 607.61L1626.15 602.819L1618.21 604.045L1617.16 603.884ZM141.439 557.539L131.344 553.141L124.961 556.846L119.792 555.443L112.894 561.106L119.261 564.526L141.207 567.482L143.323 562.104L141.439 557.539Z" fill="#8DB600"/>
</g>
<rect x="264" y="382.846" width="227" height="35.2766" rx="5" fill="white"/>
<rect x="99" y="499.846" width="220" height="35.2769" rx="5" fill="white"/>
<path d="M338.24 392.886V406.886H336.28V394.626H328.16V406.886H326.18V392.886H338.24ZM351.866 401.646C351.866 401.792 351.852 401.986 351.826 402.226H343.226C343.346 403.159 343.752 403.912 344.446 404.486C345.152 405.046 346.026 405.326 347.066 405.326C348.332 405.326 349.352 404.899 350.126 404.046L351.186 405.286C350.706 405.846 350.106 406.272 349.386 406.566C348.679 406.859 347.886 407.006 347.006 407.006C345.886 407.006 344.892 406.779 344.026 406.326C343.159 405.859 342.486 405.212 342.006 404.386C341.539 403.559 341.306 402.626 341.306 401.586C341.306 400.559 341.532 399.632 341.986 398.806C342.452 397.979 343.086 397.339 343.886 396.886C344.699 396.419 345.612 396.186 346.626 396.186C347.639 396.186 348.539 396.419 349.326 396.886C350.126 397.339 350.746 397.979 351.186 398.806C351.639 399.632 351.866 400.579 351.866 401.646ZM346.626 397.806C345.706 397.806 344.932 398.086 344.306 398.646C343.692 399.206 343.332 399.939 343.226 400.846H350.026C349.919 399.952 349.552 399.226 348.926 398.666C348.312 398.092 347.546 397.806 346.626 397.806ZM362.295 397.966H358.415V406.886H356.495V397.966H352.615V396.286H362.295V397.966ZM369.878 396.186C370.905 396.186 371.825 396.412 372.638 396.866C373.452 397.319 374.085 397.952 374.538 398.766C375.005 399.579 375.238 400.519 375.238 401.586C375.238 402.652 375.005 403.599 374.538 404.426C374.085 405.239 373.452 405.872 372.638 406.326C371.825 406.779 370.905 407.006 369.878 407.006C369.118 407.006 368.418 406.859 367.778 406.566C367.152 406.272 366.618 405.846 366.178 405.286V410.766H364.258V396.286H366.098V397.966C366.525 397.379 367.065 396.939 367.718 396.646C368.372 396.339 369.092 396.186 369.878 396.186ZM369.718 405.326C370.398 405.326 371.005 405.172 371.538 404.866C372.085 404.546 372.512 404.106 372.818 403.546C373.138 402.972 373.298 402.319 373.298 401.586C373.298 400.852 373.138 400.206 372.818 399.646C372.512 399.072 372.085 398.632 371.538 398.326C371.005 398.019 370.398 397.866 369.718 397.866C369.052 397.866 368.445 398.026 367.898 398.346C367.365 398.652 366.938 399.086 366.618 399.646C366.312 400.206 366.158 400.852 366.158 401.586C366.158 402.319 366.312 402.972 366.618 403.546C366.925 404.106 367.352 404.546 367.898 404.866C368.445 405.172 369.052 405.326 369.718 405.326ZM382.568 407.006C381.515 407.006 380.568 406.772 379.728 406.306C378.888 405.839 378.228 405.199 377.748 404.386C377.281 403.559 377.048 402.626 377.048 401.586C377.048 400.546 377.281 399.619 377.748 398.806C378.228 397.979 378.888 397.339 379.728 396.886C380.568 396.419 381.515 396.186 382.568 396.186C383.621 396.186 384.561 396.419 385.388 396.886C386.228 397.339 386.881 397.979 387.348 398.806C387.828 399.619 388.068 400.546 388.068 401.586C388.068 402.626 387.828 403.559 387.348 404.386C386.881 405.199 386.228 405.839 385.388 406.306C384.561 406.772 383.621 407.006 382.568 407.006ZM382.568 405.326C383.248 405.326 383.855 405.172 384.388 404.866C384.935 404.546 385.361 404.106 385.668 403.546C385.975 402.972 386.128 402.319 386.128 401.586C386.128 400.852 385.975 400.206 385.668 399.646C385.361 399.072 384.935 398.632 384.388 398.326C383.855 398.019 383.248 397.866 382.568 397.866C381.888 397.866 381.275 398.019 380.728 398.326C380.195 398.632 379.768 399.072 379.448 399.646C379.141 400.206 378.988 400.852 378.988 401.586C378.988 402.319 379.141 402.972 379.448 403.546C379.768 404.106 380.195 404.546 380.728 404.866C381.275 405.172 381.888 405.326 382.568 405.326ZM396.463 401.366C397.17 401.552 397.717 401.852 398.103 402.266C398.49 402.679 398.683 403.192 398.683 403.806C398.683 404.432 398.47 404.992 398.043 405.486C397.617 405.966 397.023 406.346 396.263 406.626C395.517 406.892 394.677 407.026 393.743 407.026C392.957 407.026 392.183 406.926 391.423 406.726C390.677 406.512 390.01 406.212 389.423 405.826L390.003 404.366C390.51 404.686 391.09 404.939 391.743 405.126C392.397 405.299 393.057 405.386 393.723 405.386C394.63 405.386 395.35 405.232 395.883 404.926C396.43 404.606 396.703 404.179 396.703 403.646C396.703 403.152 396.483 402.772 396.043 402.506C395.617 402.239 395.01 402.106 394.223 402.106H392.283V400.726H394.083C394.803 400.726 395.37 400.599 395.783 400.346C396.197 400.092 396.403 399.746 396.403 399.306C396.403 398.826 396.157 398.452 395.663 398.186C395.183 397.919 394.53 397.786 393.703 397.786C392.65 397.786 391.537 398.059 390.363 398.606L389.843 397.126C391.137 396.472 392.49 396.146 393.903 396.146C394.757 396.146 395.523 396.266 396.203 396.506C396.883 396.746 397.417 397.086 397.803 397.526C398.19 397.966 398.383 398.466 398.383 399.026C398.383 399.546 398.21 400.012 397.863 400.426C397.517 400.839 397.05 401.152 396.463 401.366ZM405.382 396.186C406.849 396.186 407.969 396.546 408.742 397.266C409.529 397.986 409.922 399.059 409.922 400.486V406.886H408.102V405.486C407.782 405.979 407.322 406.359 406.722 406.626C406.136 406.879 405.436 407.006 404.622 407.006C403.436 407.006 402.482 406.719 401.762 406.146C401.056 405.572 400.702 404.819 400.702 403.886C400.702 402.952 401.042 402.206 401.722 401.646C402.402 401.072 403.482 400.786 404.962 400.786H408.002V400.406C408.002 399.579 407.762 398.946 407.282 398.506C406.802 398.066 406.096 397.846 405.162 397.846C404.536 397.846 403.922 397.952 403.322 398.166C402.722 398.366 402.216 398.639 401.802 398.986L401.002 397.546C401.549 397.106 402.202 396.772 402.962 396.546C403.722 396.306 404.529 396.186 405.382 396.186ZM404.942 405.526C405.676 405.526 406.309 405.366 406.842 405.046C407.376 404.712 407.762 404.246 408.002 403.646V402.166H405.042C403.416 402.166 402.602 402.712 402.602 403.806C402.602 404.339 402.809 404.759 403.222 405.066C403.636 405.372 404.209 405.526 404.942 405.526ZM420.6 401.386C421.973 401.732 422.66 402.592 422.66 403.966C422.66 404.899 422.306 405.619 421.6 406.126C420.906 406.632 419.866 406.886 418.48 406.886H413.38V396.286H418.3C419.553 396.286 420.533 396.526 421.24 397.006C421.946 397.472 422.3 398.139 422.3 399.006C422.3 399.566 422.146 400.052 421.84 400.466C421.546 400.866 421.133 401.172 420.6 401.386ZM415.26 400.846H418.14C418.873 400.846 419.426 400.712 419.8 400.446C420.186 400.179 420.38 399.792 420.38 399.286C420.38 398.272 419.633 397.766 418.14 397.766H415.26V400.846ZM418.34 405.406C419.14 405.406 419.74 405.279 420.14 405.026C420.54 404.772 420.74 404.379 420.74 403.846C420.74 403.299 420.553 402.892 420.18 402.626C419.82 402.359 419.246 402.226 418.46 402.226H415.26V405.406H418.34ZM430.205 407.006C429.151 407.006 428.205 406.772 427.365 406.306C426.525 405.839 425.865 405.199 425.385 404.386C424.918 403.559 424.685 402.626 424.685 401.586C424.685 400.546 424.918 399.619 425.385 398.806C425.865 397.979 426.525 397.339 427.365 396.886C428.205 396.419 429.151 396.186 430.205 396.186C431.258 396.186 432.198 396.419 433.025 396.886C433.865 397.339 434.518 397.979 434.985 398.806C435.465 399.619 435.705 400.546 435.705 401.586C435.705 402.626 435.465 403.559 434.985 404.386C434.518 405.199 433.865 405.839 433.025 406.306C432.198 406.772 431.258 407.006 430.205 407.006ZM430.205 405.326C430.885 405.326 431.491 405.172 432.025 404.866C432.571 404.546 432.998 404.106 433.305 403.546C433.611 402.972 433.765 402.319 433.765 401.586C433.765 400.852 433.611 400.206 433.305 399.646C432.998 399.072 432.571 398.632 432.025 398.326C431.491 398.019 430.885 397.866 430.205 397.866C429.525 397.866 428.911 398.019 428.365 398.326C427.831 398.632 427.405 399.072 427.085 399.646C426.778 400.206 426.625 400.852 426.625 401.586C426.625 402.319 426.778 402.972 427.085 403.546C427.405 404.106 427.831 404.546 428.365 404.866C428.911 405.172 429.525 405.326 430.205 405.326ZM449.179 405.206V409.346H447.379V406.886H438.519V409.346H436.699V405.206H437.259C437.939 405.166 438.406 404.686 438.659 403.766C438.912 402.846 439.086 401.546 439.179 399.866L439.339 396.286H447.559V405.206H449.179ZM440.939 400.006C440.886 401.339 440.772 402.446 440.599 403.326C440.439 404.192 440.139 404.819 439.699 405.206H445.639V397.966H441.039L440.939 400.006ZM456.3 407.006C455.22 407.006 454.254 406.772 453.4 406.306C452.56 405.839 451.9 405.199 451.42 404.386C450.94 403.559 450.7 402.626 450.7 401.586C450.7 400.546 450.94 399.619 451.42 398.806C451.9 397.979 452.56 397.339 453.4 396.886C454.254 396.419 455.22 396.186 456.3 396.186C457.26 396.186 458.114 396.379 458.86 396.766C459.62 397.152 460.207 397.712 460.62 398.446L459.16 399.386C458.827 398.879 458.414 398.499 457.92 398.246C457.427 397.992 456.88 397.866 456.28 397.866C455.587 397.866 454.96 398.019 454.4 398.326C453.854 398.632 453.42 399.072 453.1 399.646C452.794 400.206 452.64 400.852 452.64 401.586C452.64 402.332 452.794 402.992 453.1 403.566C453.42 404.126 453.854 404.559 454.4 404.866C454.96 405.172 455.587 405.326 456.28 405.326C456.88 405.326 457.427 405.199 457.92 404.946C458.414 404.692 458.827 404.312 459.16 403.806L460.62 404.726C460.207 405.459 459.62 406.026 458.86 406.426C458.114 406.812 457.26 407.006 456.3 407.006ZM467.226 402.406H465.026V406.886H463.106V396.286H465.026V400.766H467.266L470.706 396.286H472.766L468.746 401.386L473.046 406.886H470.786L467.226 402.406Z" fill="#000D4E"/>
<g clip-path="url(#clip1)">
<path fill-rule="evenodd" clip-rule="evenodd" d="M309.016 415.516C312.164 411.084 314 405.609 314 399.743C314 384.36 301.541 371.846 286.066 371.846C270.59 371.846 258 384.36 258 399.743C258 405.739 259.967 411.344 263.246 415.907L286.852 444.846C294.459 434.809 301.934 424.902 309.016 415.516ZM275.705 399.743C275.705 405.348 280.295 410.041 286.066 410.041C291.836 410.041 296.426 405.478 296.426 399.743C296.426 394.007 291.836 389.444 286.066 389.444C280.295 389.444 275.705 394.007 275.705 399.743Z" fill="#DD2D27"/>
</g>
<g clip-path="url(#clip2)">
<path fill-rule="evenodd" clip-rule="evenodd" d="M141.016 532.516C144.164 528.084 146 522.609 146 516.743C146 501.36 133.541 488.846 118.066 488.846C102.59 488.846 90 501.36 90 516.743C90 522.739 91.9672 528.344 95.2459 532.907L118.852 561.846C126.459 551.809 133.934 541.902 141.016 532.516ZM107.705 516.743C107.705 522.348 112.295 527.041 118.066 527.041C123.836 527.041 128.426 522.478 128.426 516.743C128.426 511.007 123.836 506.444 118.066 506.444C112.295 506.444 107.705 511.007 107.705 516.743Z" fill="#DD2D27"/>
</g>
<path d="M171.06 517.726H168.14V523.886H166.18V509.886H168.14V515.966H171.1L175.5 509.886H177.64L172.64 516.666L177.88 523.886H175.6L171.06 517.726ZM183.527 513.186C184.993 513.186 186.113 513.546 186.887 514.266C187.673 514.986 188.067 516.059 188.067 517.486V523.886H186.247V522.486C185.927 522.979 185.467 523.359 184.867 523.626C184.28 523.879 183.58 524.006 182.767 524.006C181.58 524.006 180.627 523.719 179.907 523.146C179.2 522.572 178.847 521.819 178.847 520.886C178.847 519.952 179.187 519.206 179.867 518.646C180.547 518.072 181.627 517.786 183.107 517.786H186.147V517.406C186.147 516.579 185.907 515.946 185.427 515.506C184.947 515.066 184.24 514.846 183.307 514.846C182.68 514.846 182.067 514.952 181.467 515.166C180.867 515.366 180.36 515.639 179.947 515.986L179.147 514.546C179.693 514.106 180.347 513.772 181.107 513.546C181.867 513.306 182.673 513.186 183.527 513.186ZM183.087 522.526C183.82 522.526 184.453 522.366 184.987 522.046C185.52 521.712 185.907 521.246 186.147 520.646V519.166H183.187C181.56 519.166 180.747 519.712 180.747 520.806C180.747 521.339 180.953 521.759 181.367 522.066C181.78 522.372 182.353 522.526 183.087 522.526ZM200.624 513.286V523.886H198.704V514.966H194.144L194.024 517.326C193.957 518.752 193.831 519.946 193.644 520.906C193.457 521.852 193.151 522.612 192.724 523.186C192.297 523.759 191.704 524.046 190.944 524.046C190.597 524.046 190.204 523.986 189.764 523.866L189.884 522.246C190.057 522.286 190.217 522.306 190.364 522.306C190.897 522.306 191.297 522.072 191.564 521.606C191.831 521.139 192.004 520.586 192.084 519.946C192.164 519.306 192.237 518.392 192.304 517.206L192.484 513.286H200.624ZM204.337 513.286H206.257V521.006L212.757 513.286H214.497V523.886H212.577V516.166L206.097 523.886H204.337V513.286ZM218.223 513.286H220.143V517.786H226.183V513.286H228.103V523.886H226.183V519.446H220.143V523.886H218.223V513.286ZM231.837 513.286H233.757V521.006L240.257 513.286H241.997V523.886H240.077V516.166L233.597 523.886H231.837V513.286ZM245.723 513.286H247.643V517.786H253.683V513.286H255.603V523.886H253.683V519.446H247.643V523.886H245.723V513.286ZM267.137 514.966H261.257V523.886H259.337V513.286H267.137V514.966ZM274.722 513.186C275.749 513.186 276.669 513.412 277.482 513.866C278.296 514.319 278.929 514.952 279.382 515.766C279.849 516.579 280.082 517.519 280.082 518.586C280.082 519.652 279.849 520.599 279.382 521.426C278.929 522.239 278.296 522.872 277.482 523.326C276.669 523.779 275.749 524.006 274.722 524.006C273.962 524.006 273.262 523.859 272.622 523.566C271.996 523.272 271.462 522.846 271.022 522.286V527.766H269.102V513.286H270.942V514.966C271.369 514.379 271.909 513.939 272.562 513.646C273.216 513.339 273.936 513.186 274.722 513.186ZM274.562 522.326C275.242 522.326 275.849 522.172 276.382 521.866C276.929 521.546 277.356 521.106 277.662 520.546C277.982 519.972 278.142 519.319 278.142 518.586C278.142 517.852 277.982 517.206 277.662 516.646C277.356 516.072 276.929 515.632 276.382 515.326C275.849 515.019 275.242 514.866 274.562 514.866C273.896 514.866 273.289 515.026 272.742 515.346C272.209 515.652 271.782 516.086 271.462 516.646C271.156 517.206 271.002 517.852 271.002 518.586C271.002 519.319 271.156 519.972 271.462 520.546C271.769 521.106 272.196 521.546 272.742 521.866C273.289 522.172 273.896 522.326 274.562 522.326ZM286.554 513.186C288.021 513.186 289.141 513.546 289.914 514.266C290.701 514.986 291.094 516.059 291.094 517.486V523.886H289.274V522.486C288.954 522.979 288.494 523.359 287.894 523.626C287.307 523.879 286.607 524.006 285.794 524.006C284.607 524.006 283.654 523.719 282.934 523.146C282.227 522.572 281.874 521.819 281.874 520.886C281.874 519.952 282.214 519.206 282.894 518.646C283.574 518.072 284.654 517.786 286.134 517.786H289.174V517.406C289.174 516.579 288.934 515.946 288.454 515.506C287.974 515.066 287.267 514.846 286.334 514.846C285.707 514.846 285.094 514.952 284.494 515.166C283.894 515.366 283.387 515.639 282.974 515.986L282.174 514.546C282.721 514.106 283.374 513.772 284.134 513.546C284.894 513.306 285.701 513.186 286.554 513.186ZM286.114 522.526C286.847 522.526 287.481 522.366 288.014 522.046C288.547 521.712 288.934 521.246 289.174 520.646V519.166H286.214C284.587 519.166 283.774 519.712 283.774 520.806C283.774 521.339 283.981 521.759 284.394 522.066C284.807 522.372 285.381 522.526 286.114 522.526ZM305.331 522.206V526.346H303.531V523.886H294.671V526.346H292.851V522.206H293.411C294.091 522.166 294.558 521.686 294.811 520.766C295.065 519.846 295.238 518.546 295.331 516.866L295.491 513.286H303.711V522.206H305.331ZM297.091 517.006C297.038 518.339 296.925 519.446 296.751 520.326C296.591 521.192 296.291 521.819 295.851 522.206H301.791V514.966H297.191L297.091 517.006Z" fill="#000D4E"/>
<rect x="241" y="654.846" width="129" height="35.2764" rx="5" fill="white"/>
<path d="M312.44 679.045C311.04 679.045 309.773 678.739 308.64 678.125C307.52 677.499 306.64 676.645 306 675.565C305.36 674.472 305.04 673.245 305.04 671.885C305.04 670.525 305.36 669.305 306 668.225C306.64 667.132 307.527 666.279 308.66 665.665C309.793 665.039 311.06 664.725 312.46 664.725C313.553 664.725 314.553 664.912 315.46 665.285C316.367 665.645 317.14 666.185 317.78 666.905L316.48 668.165C315.427 667.059 314.113 666.505 312.54 666.505C311.5 666.505 310.56 666.739 309.72 667.205C308.88 667.672 308.22 668.319 307.74 669.145C307.273 669.959 307.04 670.872 307.04 671.885C307.04 672.899 307.273 673.819 307.74 674.645C308.22 675.459 308.88 676.099 309.72 676.565C310.56 677.032 311.5 677.265 312.54 677.265C314.1 677.265 315.413 676.705 316.48 675.585L317.78 676.845C317.14 677.565 316.36 678.112 315.44 678.485C314.533 678.859 313.533 679.045 312.44 679.045ZM324.306 679.005C323.253 679.005 322.306 678.772 321.466 678.305C320.626 677.839 319.966 677.199 319.486 676.385C319.02 675.559 318.786 674.625 318.786 673.585C318.786 672.545 319.02 671.619 319.486 670.805C319.966 669.979 320.626 669.339 321.466 668.885C322.306 668.419 323.253 668.185 324.306 668.185C325.36 668.185 326.3 668.419 327.126 668.885C327.966 669.339 328.62 669.979 329.086 670.805C329.566 671.619 329.806 672.545 329.806 673.585C329.806 674.625 329.566 675.559 329.086 676.385C328.62 677.199 327.966 677.839 327.126 678.305C326.3 678.772 325.36 679.005 324.306 679.005ZM324.306 677.325C324.986 677.325 325.593 677.172 326.126 676.865C326.673 676.545 327.1 676.105 327.406 675.545C327.713 674.972 327.866 674.319 327.866 673.585C327.866 672.852 327.713 672.205 327.406 671.645C327.1 671.072 326.673 670.632 326.126 670.325C325.593 670.019 324.986 669.865 324.306 669.865C323.626 669.865 323.013 670.019 322.466 670.325C321.933 670.632 321.506 671.072 321.186 671.645C320.88 672.205 320.726 672.852 320.726 673.585C320.726 674.319 320.88 674.972 321.186 675.545C321.506 676.105 321.933 676.545 322.466 676.865C323.013 677.172 323.626 677.325 324.306 677.325ZM341.039 668.285V678.885H339.119V674.605C337.972 675.139 336.832 675.405 335.699 675.405C334.379 675.405 333.359 675.099 332.639 674.485C331.919 673.872 331.559 672.952 331.559 671.725V668.285H333.479V671.605C333.479 672.339 333.705 672.892 334.159 673.265C334.625 673.639 335.272 673.825 336.099 673.825C337.032 673.825 338.039 673.592 339.119 673.125V668.285H341.039ZM344.766 668.285H346.686V676.005L353.186 668.285H354.926V678.885H353.006V671.165L346.526 678.885H344.766V668.285Z" fill="#000D4E"/>
<g clip-path="url(#clip3)">
<path fill-rule="evenodd" clip-rule="evenodd" d="M285.016 689.712C288.164 685.159 290 679.534 290 673.507C290 657.703 277.541 644.846 262.066 644.846C246.59 644.846 234 657.703 234 673.507C234 679.668 235.967 685.427 239.246 690.114L262.852 719.846C270.459 709.534 277.934 699.355 285.016 689.712ZM251.705 673.507C251.705 679.266 256.295 684.087 262.066 684.087C267.836 684.087 272.426 679.4 272.426 673.507C272.426 667.614 267.836 662.927 262.066 662.927C256.295 662.927 251.705 667.614 251.705 673.507Z" fill="#DD2D27"/>
</g>
<rect y="423.846" width="243" height="35.2764" rx="5" fill="white"/>
<g clip-path="url(#clip4)">
<path fill-rule="evenodd" clip-rule="evenodd" d="M254.927 456.114C258.131 451.621 260 446.071 260 440.125C260 424.532 247.318 411.846 231.567 411.846C215.815 411.846 203 424.532 203 440.125C203 446.203 205.002 451.885 208.34 456.51L232.368 485.846C240.11 475.671 247.719 465.628 254.927 456.114ZM221.021 440.125C221.021 445.807 225.693 450.564 231.567 450.564C237.44 450.564 242.112 445.939 242.112 440.125C242.112 434.31 237.44 429.685 231.567 429.685C225.693 429.685 221.021 434.31 221.021 440.125Z" fill="#DD2D27"/>
</g>
<path d="M21.44 448.045C20.04 448.045 18.7733 447.739 17.64 447.125C16.52 446.499 15.64 445.645 15 444.565C14.36 443.472 14.04 442.245 14.04 440.885C14.04 439.525 14.36 438.305 15 437.225C15.64 436.132 16.5267 435.279 17.66 434.665C18.7933 434.039 20.06 433.725 21.46 433.725C22.5533 433.725 23.5533 433.912 24.46 434.285C25.3667 434.645 26.14 435.185 26.78 435.905L25.48 437.165C24.4267 436.059 23.1133 435.505 21.54 435.505C20.5 435.505 19.56 435.739 18.72 436.205C17.88 436.672 17.22 437.319 16.74 438.145C16.2733 438.959 16.04 439.872 16.04 440.885C16.04 441.899 16.2733 442.819 16.74 443.645C17.22 444.459 17.88 445.099 18.72 445.565C19.56 446.032 20.5 446.265 21.54 446.265C23.1 446.265 24.4133 445.705 25.48 444.585L26.78 445.845C26.14 446.565 25.36 447.112 24.44 447.485C23.5333 447.859 22.5333 448.045 21.44 448.045ZM32.8588 437.185C34.3254 437.185 35.4454 437.545 36.2188 438.265C37.0054 438.985 37.3988 440.059 37.3988 441.485V447.885H35.5788V446.485C35.2588 446.979 34.7988 447.359 34.1988 447.625C33.6121 447.879 32.9121 448.005 32.0988 448.005C30.9121 448.005 29.9588 447.719 29.2388 447.145C28.5321 446.572 28.1788 445.819 28.1788 444.885C28.1788 443.952 28.5188 443.205 29.1988 442.645C29.8788 442.072 30.9588 441.785 32.4388 441.785H35.4788V441.405C35.4788 440.579 35.2388 439.945 34.7588 439.505C34.2788 439.065 33.5721 438.845 32.6388 438.845C32.0121 438.845 31.3988 438.952 30.7988 439.165C30.1988 439.365 29.6921 439.639 29.2788 439.985L28.4788 438.545C29.0254 438.105 29.6788 437.772 30.4388 437.545C31.1988 437.305 32.0054 437.185 32.8588 437.185ZM32.4188 446.525C33.1521 446.525 33.7854 446.365 34.3188 446.045C34.8521 445.712 35.2388 445.245 35.4788 444.645V443.165H32.5188C30.8921 443.165 30.0788 443.712 30.0788 444.805C30.0788 445.339 30.2854 445.759 30.6988 446.065C31.1121 446.372 31.6854 446.525 32.4188 446.525ZM40.8561 437.285H42.7761V441.785H48.8161V437.285H50.7361V447.885H48.8161V443.445H42.7761V447.885H40.8561V437.285ZM58.5894 443.405H56.3894V447.885H54.4694V437.285H56.3894V441.765H58.6294L62.0694 437.285H64.1294L60.1094 442.385L64.4094 447.885H62.1494L58.5894 443.405ZM74.1467 438.965H70.2667V447.885H68.3467V438.965H64.4667V437.285H74.1467V438.965ZM75.0189 441.565H80.3989V443.225H75.0189V441.565ZM95.7752 433.885V447.885H93.8152V435.625H85.6952V447.885H83.7152V433.885H95.7752ZM109.401 442.645C109.401 442.792 109.388 442.985 109.361 443.225H100.761C100.881 444.159 101.288 444.912 101.981 445.485C102.688 446.045 103.561 446.325 104.601 446.325C105.868 446.325 106.888 445.899 107.661 445.045L108.721 446.285C108.241 446.845 107.641 447.272 106.921 447.565C106.214 447.859 105.421 448.005 104.541 448.005C103.421 448.005 102.428 447.779 101.561 447.325C100.694 446.859 100.021 446.212 99.5409 445.385C99.0743 444.559 98.8409 443.625 98.8409 442.585C98.8409 441.559 99.0676 440.632 99.5209 439.805C99.9876 438.979 100.621 438.339 101.421 437.885C102.234 437.419 103.148 437.185 104.161 437.185C105.174 437.185 106.074 437.419 106.861 437.885C107.661 438.339 108.281 438.979 108.721 439.805C109.174 440.632 109.401 441.579 109.401 442.645ZM104.161 438.805C103.241 438.805 102.468 439.085 101.841 439.645C101.228 440.205 100.868 440.939 100.761 441.845H107.561C107.454 440.952 107.088 440.225 106.461 439.665C105.848 439.092 105.081 438.805 104.161 438.805ZM119.83 438.965H115.95V447.885H114.03V438.965H110.15V437.285H119.83V438.965ZM130.905 442.645C130.905 442.792 130.892 442.985 130.865 443.225H122.265C122.385 444.159 122.792 444.912 123.485 445.485C124.192 446.045 125.065 446.325 126.105 446.325C127.372 446.325 128.392 445.899 129.165 445.045L130.225 446.285C129.745 446.845 129.145 447.272 128.425 447.565C127.718 447.859 126.925 448.005 126.045 448.005C124.925 448.005 123.932 447.779 123.065 447.325C122.198 446.859 121.525 446.212 121.045 445.385C120.578 444.559 120.345 443.625 120.345 442.585C120.345 441.559 120.572 440.632 121.025 439.805C121.492 438.979 122.125 438.339 122.925 437.885C123.738 437.419 124.652 437.185 125.665 437.185C126.678 437.185 127.578 437.419 128.365 437.885C129.165 438.339 129.785 438.979 130.225 439.805C130.678 440.632 130.905 441.579 130.905 442.645ZM125.665 438.805C124.745 438.805 123.972 439.085 123.345 439.645C122.732 440.205 122.372 440.939 122.265 441.845H129.065C128.958 440.952 128.592 440.225 127.965 439.665C127.352 439.092 126.585 438.805 125.665 438.805ZM139.503 437.185C140.53 437.185 141.45 437.412 142.263 437.865C143.077 438.319 143.71 438.952 144.163 439.765C144.63 440.579 144.863 441.519 144.863 442.585C144.863 443.652 144.63 444.599 144.163 445.425C143.71 446.239 143.077 446.872 142.263 447.325C141.45 447.779 140.53 448.005 139.503 448.005C138.743 448.005 138.043 447.859 137.403 447.565C136.777 447.272 136.243 446.845 135.803 446.285V451.765H133.883V437.285H135.723V438.965C136.15 438.379 136.69 437.939 137.343 437.645C137.997 437.339 138.717 437.185 139.503 437.185ZM139.343 446.325C140.023 446.325 140.63 446.172 141.163 445.865C141.71 445.545 142.137 445.105 142.443 444.545C142.763 443.972 142.923 443.319 142.923 442.585C142.923 441.852 142.763 441.205 142.443 440.645C142.137 440.072 141.71 439.632 141.163 439.325C140.63 439.019 140.023 438.865 139.343 438.865C138.677 438.865 138.07 439.025 137.523 439.345C136.99 439.652 136.563 440.085 136.243 440.645C135.937 441.205 135.783 441.852 135.783 442.585C135.783 443.319 135.937 443.972 136.243 444.545C136.55 445.105 136.977 445.545 137.523 445.865C138.07 446.172 138.677 446.325 139.343 446.325ZM153.053 437.645C154.04 437.645 154.92 437.865 155.693 438.305C156.466 438.745 157.066 439.359 157.493 440.145C157.933 440.919 158.153 441.805 158.153 442.805C158.153 443.832 157.92 444.745 157.453 445.545C157 446.332 156.353 446.945 155.513 447.385C154.686 447.825 153.74 448.045 152.673 448.045C150.873 448.045 149.48 447.432 148.493 446.205C147.52 444.965 147.033 443.225 147.033 440.985C147.033 438.812 147.48 437.112 148.373 435.885C149.266 434.645 150.633 433.825 152.473 433.425L157.313 432.345L157.593 434.105L153.133 435.065C151.746 435.372 150.713 435.892 150.033 436.625C149.353 437.359 148.966 438.412 148.873 439.785C149.326 439.105 149.913 438.579 150.633 438.205C151.353 437.832 152.16 437.645 153.053 437.645ZM152.713 446.445C153.393 446.445 153.993 446.292 154.513 445.985C155.046 445.679 155.46 445.259 155.753 444.725C156.046 444.179 156.193 443.559 156.193 442.865C156.193 441.812 155.873 440.965 155.233 440.325C154.593 439.685 153.753 439.365 152.713 439.365C151.673 439.365 150.826 439.685 150.173 440.325C149.533 440.965 149.213 441.812 149.213 442.865C149.213 443.559 149.36 444.179 149.653 444.725C149.96 445.259 150.38 445.679 150.913 445.985C151.446 446.292 152.046 446.445 152.713 446.445ZM170.062 437.285L164.922 448.945C164.469 450.025 163.936 450.785 163.322 451.225C162.722 451.665 161.996 451.885 161.142 451.885C160.622 451.885 160.116 451.799 159.622 451.625C159.142 451.465 158.742 451.225 158.422 450.905L159.242 449.465C159.789 449.985 160.422 450.245 161.142 450.245C161.609 450.245 161.996 450.119 162.302 449.865C162.622 449.625 162.909 449.205 163.162 448.605L163.502 447.865L158.822 437.285H160.822L164.522 445.765L168.182 437.285H170.062ZM177.648 437.185C178.675 437.185 179.595 437.412 180.408 437.865C181.221 438.319 181.855 438.952 182.308 439.765C182.775 440.579 183.008 441.519 183.008 442.585C183.008 443.652 182.775 444.599 182.308 445.425C181.855 446.239 181.221 446.872 180.408 447.325C179.595 447.779 178.675 448.005 177.648 448.005C176.888 448.005 176.188 447.859 175.548 447.565C174.921 447.272 174.388 446.845 173.948 446.285V451.765H172.028V437.285H173.868V438.965C174.295 438.379 174.835 437.939 175.488 437.645C176.141 437.339 176.861 437.185 177.648 437.185ZM177.488 446.325C178.168 446.325 178.775 446.172 179.308 445.865C179.855 445.545 180.281 445.105 180.588 444.545C180.908 443.972 181.068 443.319 181.068 442.585C181.068 441.852 180.908 441.205 180.588 440.645C180.281 440.072 179.855 439.632 179.308 439.325C178.775 439.019 178.168 438.865 177.488 438.865C176.821 438.865 176.215 439.025 175.668 439.345C175.135 439.652 174.708 440.085 174.388 440.645C174.081 441.205 173.928 441.852 173.928 442.585C173.928 443.319 174.081 443.972 174.388 444.545C174.695 445.105 175.121 445.545 175.668 445.865C176.215 446.172 176.821 446.325 177.488 446.325ZM193.598 438.965H187.718V447.885H185.798V437.285H193.598V438.965Z" fill="#000D4E"/>
<defs>
<clipPath id="clip0">
<rect width="1639" height="745" fill="white" transform="translate(198.888) rotate(8.71324)"/>
</clipPath>
<clipPath id="clip1">
<rect width="56" height="73" fill="white" transform="translate(258 371.846)"/>
</clipPath>
<clipPath id="clip2">
<rect width="56" height="73" fill="white" transform="translate(90 488.846)"/>
</clipPath>
<clipPath id="clip3">
<rect width="56" height="75" fill="white" transform="translate(234 644.846)"/>
</clipPath>
<clipPath id="clip4">
<rect width="57" height="74" fill="white" transform="translate(203 411.846)"/>
</clipPath>
</defs>
</svg>
