<svg width="112" height="263" viewBox="0 0 112 263" fill="none" xmlns="http://www.w3.org/2000/svg">
<path d="M61.6856 239.075C61.4885 219.611 57.5474 190.017 56.9562 185.251C56.5621 182.073 54.0003 173.93 50.2562 161.814C42.1769 133.809 41.5857 113.551 44.3445 95.2781L63.0649 95.6753C66.2179 110.174 84.5442 125.666 72.1296 142.548C71.5384 148.706 68.1884 169.957 69.5678 179.292C71.3413 190.216 72.3266 195.579 71.7355 208.489C71.5384 213.851 68.5825 230.535 68.5825 239.075H68.3855C68.3855 244.239 68.3855 249.006 68.3855 250.992C68.5825 251.389 68.9767 254.567 69.3708 254.965C69.7649 255.759 69.3708 260.923 69.3708 260.923L54.7886 260.327H54.9856C56.5621 258.738 61.4885 252.383 61.4885 249.006C61.8826 246.225 61.8826 242.849 61.6856 239.075Z" fill="#FEFEFE"/>
<path d="M87.6969 159.431C86.9087 165.588 85.5293 169.759 84.9381 175.121C84.1499 182.669 88.6822 193.791 85.7264 206.105C84.544 210.475 83.1646 222.392 82.1793 232.521V232.918V233.117V233.316V233.713V234.11V234.309V234.507V234.904V235.302V235.5V235.699V236.096V236.493V236.692V236.891V237.288V237.685V237.884V238.082L81.9823 238.877V239.075V239.274V239.671V239.87V240.068V240.267V240.664L81.7852 241.657C81.3911 246.027 80.997 249.006 80.997 249.006L81.9823 262.115H72.7206C73.3118 258.341 75.0853 246.821 74.6912 241.856V241.657V241.459V241.26V241.062V240.863V240.664V240.466C72.9177 214.844 73.3118 185.648 71.9324 174.128C71.3412 169.163 67.9912 161.218 66.6118 154.664C66.6118 154.664 62.4736 136.193 59.7148 134.604C48.2855 128.248 44.9355 95.2781 44.9355 95.2781L72.7206 96.6684C72.7206 96.6684 89.8646 110.373 87.3028 134.405C87.3028 134.405 87.3028 134.604 87.4999 135.001C88.4852 146.521 88.2881 153.87 87.6969 159.431Z" fill="#FEFEFE"/>
<path d="M81.9824 251.787C81.9824 251.787 81.5883 248.609 77.2531 249.006C72.9178 249.403 73.3119 252.581 73.3119 252.581C73.3119 252.581 72.7208 251.985 72.1296 252.581C71.5384 253.177 72.3267 257.546 71.3414 258.54C70.3561 259.533 70.7502 261.916 70.7502 261.916H83.5589C83.5589 261.916 84.1501 258.738 82.7707 257.546C81.5883 256.553 84.5442 252.184 81.9824 251.787Z" fill="#001D60"/>
<path d="M70.5535 261.917C70.5535 261.917 71.3418 252.185 69.3712 249.603C69.3712 249.603 67.4006 252.979 64.4448 252.979C62.4742 252.979 61.883 248.61 60.3066 249.603C58.9272 250.397 57.9419 252.78 54.1978 255.362C50.4537 257.746 47.4978 257.15 47.3008 261.917H70.5535Z" fill="#001D60"/>
<path d="M31.7329 186.243C31.7329 186.243 33.1123 186.641 35.477 187.237C36.2652 187.435 37.2505 187.634 38.2358 187.832C39.6152 188.23 41.3887 188.428 43.3593 188.825C44.3446 189.024 45.1328 189.223 46.1181 189.223C48.4828 189.62 51.0445 190.017 53.8033 190.216C54.5915 190.216 55.5768 190.414 56.3651 190.414C58.7297 190.613 61.2915 190.812 64.0503 191.01C65.0356 191.01 65.8238 191.209 66.8091 191.209C71.1443 191.407 75.8737 191.209 80.406 190.812C81.3913 190.812 82.1795 190.613 83.1648 190.613C86.1207 190.216 89.0765 189.819 92.0324 189.223C93.0177 189.024 93.8059 188.825 94.7912 188.627C97.55 187.832 100.506 187.038 103.265 186.045C103.265 186.045 100.506 127.851 75.4796 87.7305L49.0739 81.1762C48.8769 80.779 31.7329 121.892 31.7329 186.243Z" fill="#001D60"/>
<path d="M23.2594 67.8693C22.4712 66.2804 17.9389 72.2389 19.7124 77.0057C21.4859 81.7725 24.2447 74.0264 24.2447 74.0264C24.2447 74.0264 25.6241 72.0403 23.2594 67.8693Z" fill="#001D60"/>
<path d="M61.6855 42.4468C61.6855 42.4468 49.6651 46.8163 46.118 50.1928L36.2652 80.5809C34.6887 81.9712 25.23 69.6571 23.2594 67.6709C23.2594 67.6709 24.6388 77.6017 19.7124 76.8072C20.1065 78.1975 20.8947 78.7934 21.4859 79.7864C21.4859 79.7864 22.6683 83.7587 23.0624 84.5532C27.0035 90.7103 31.5358 100.244 35.674 101.435C41.5857 103.223 52.0298 76.8072 52.0298 76.8072L61.6855 42.4468Z" fill="#DD2D27"/>
<path d="M77.4501 88.1281C72.7207 94.881 48.8768 95.2782 44.7386 88.1281C42.1769 83.5599 47.4974 80.3821 47.4974 80.3821C34.6887 58.3358 56.9562 42.8438 56.9562 42.8438C56.9562 42.8438 60.5032 41.4535 65.6267 40.6591C65.4296 41.0563 65.2326 41.4535 65.0355 41.6522C65.8237 43.0425 66.2178 44.6314 66.4149 46.0217C66.612 46.0217 66.612 46.2203 67.0061 46.2203C70.5531 44.4328 73.9031 42.6452 77.4501 41.0563C77.253 40.6591 77.253 40.4605 77.253 40.0632C81.5883 40.4605 86.1206 41.8508 89.4706 44.83C100.9 54.7607 76.6619 85.3475 76.6619 85.3475C76.8589 86.3405 78.0413 87.3336 77.4501 88.1281Z" fill="#DD2D27"/>
<path d="M76.8592 39.2688C76.8592 39.2688 75.0857 42.4467 66.8093 45.4259C66.8093 45.4259 65.824 43.4397 66.021 39.2688C66.021 39.2688 61.4887 41.0563 59.124 44.6314H63.2622L63.8534 49.001L74.4945 44.6314L80.6033 45.6245C80.6033 45.4259 81.7856 40.0633 76.8592 39.2688Z" fill="#001D60"/>
<path d="M64.0501 48.4055C64.0501 48.4055 57.7442 54.364 54.7884 64.0961C51.8325 73.6297 52.6208 79.5881 52.6208 79.5881C52.6208 79.5881 52.4237 60.7197 65.2324 48.4055H64.0501Z" fill="#001D60"/>
<path d="M51.6357 110.175C51.4386 111.764 83.5589 115.339 86.9089 115.339C87.1059 115.339 87.1059 115.339 87.1059 115.339C88.0912 114.942 91.8353 88.7245 90.4559 88.5259C83.1648 86.5398 57.3503 82.5674 56.168 83.3619C56.168 83.3619 56.168 83.3619 55.9709 83.5605C54.7886 86.1425 51.8327 108.586 51.6357 110.175Z" fill="#E0E4E9"/>
<path d="M67.2032 105.408C67.2032 105.408 71.3415 104.216 72.9179 104.613C74.6914 105.01 80.2091 102.031 80.2091 102.031L81.7855 107.791C81.7855 107.791 77.6473 110.969 75.6767 111.962C75.6767 111.962 69.5679 115.339 68.7797 114.544C68.1885 113.75 66.415 114.743 65.8238 114.743C65.2327 114.941 63.4591 113.551 63.4591 113.551C63.4591 113.551 60.5033 114.544 60.1091 113.948C59.715 113.352 62.868 110.969 62.868 110.969C59.518 112.757 59.3209 111.168 60.7003 110.77C62.0797 110.373 63.4591 107.592 64.2474 106.599C65.4297 105.805 67.2032 105.408 67.2032 105.408Z" fill="#FEFEFE"/>
<path fill-rule="evenodd" clip-rule="evenodd" d="M89.2737 14.8391C87.3032 14.6405 85.3326 16.0308 84.9385 18.2156C84.9385 18.6128 86.3179 19.2087 86.712 20.2017C87.6973 23.5782 85.3326 34.7006 86.909 35.0978C88.6826 35.8923 97.7472 15.8322 89.2737 14.8391Z" fill="#DD2D27"/>
<path d="M90.6533 46.6179C90.6533 46.6179 83.3622 46.022 82.9681 57.1445C82.3769 73.0336 94.5945 84.1561 94.5945 84.1561C94.5945 84.1561 89.8651 91.1076 88.0916 91.902C86.5151 92.6965 82.9681 99.2508 82.9681 99.2508L79.4211 101.634C78.8299 104.216 82.9681 108.983 82.9681 108.983L87.6975 106.401C87.6975 106.401 91.4415 106.798 93.8062 106.004C96.368 105.209 108.585 93.6896 111.344 92.1007C114.103 90.5117 98.5356 54.3639 90.6533 46.6179Z" fill="#DD2D27"/>
<path fill-rule="evenodd" clip-rule="evenodd" d="M78.0413 30.1322C78.2383 29.9336 78.2383 29.735 78.2383 29.5364C78.2383 29.3377 78.2383 29.3377 78.4354 29.3377C78.8295 28.9405 79.0266 28.5433 79.4207 28.1461C80.0118 27.5502 80.603 26.7557 80.9971 26.1599C81.5883 25.1668 81.9824 23.9751 81.3912 22.9821C80.0118 20.0028 77.253 23.3793 77.253 23.3793C71.7354 21.5918 72.1295 9.47623 72.1295 9.47623C69.3707 8.48315 67.006 8.68177 65.2325 9.47623C62.4737 10.4693 60.8973 12.8527 59.912 14.8388C59.3208 17.2222 59.1237 19.6056 59.1237 21.7904C54.7885 13.0513 55.3796 3.31916 66.809 1.1344C76.2677 -0.65314 78.6324 4.90808 78.6324 4.90808C93.0176 5.70254 91.4412 28.9405 78.0413 30.1322Z" fill="#DD2D27"/>
<path d="M14.589 61.5132C13.9978 64.4924 16.5596 65.2869 16.5596 65.2869C15.1802 63.8966 15.5743 61.5132 15.5743 61.5132C12.4214 56.9451 13.9978 56.5479 13.9978 56.5479C13.9978 56.5479 13.9978 56.5478 17.5449 60.9174C19.5154 63.3007 20.1066 64.4924 20.1066 65.6841L21.8801 68.0675L23.2595 69.855C23.4566 72.0397 23.2595 75.6148 21.2889 76.8065C20.6978 75.6148 19.9095 74.4231 19.3184 73.2314C18.7272 72.0397 17.939 71.0467 17.5449 70.2522C15.7713 70.848 13.0125 70.4508 11.6331 69.855C10.0567 69.0605 5.52436 70.0536 4.14496 69.0605C3.55379 68.6633 4.14496 68.4647 5.72142 68.2661C7.49493 68.0675 8.87434 67.273 8.87434 67.273C7.88905 65.6841 1.58322 66.8758 0.59793 64.8896C0.203815 63.8966 7.49493 65.6841 8.28316 64.691C8.28316 64.691 7.88905 64.0952 4.34202 62.9035C2.37144 62.3076 0.203815 61.5132 0.00675772 60.9174C-0.1903 59.5271 3.9479 61.7118 9.07139 62.3077C9.07139 62.3077 6.90376 61.3146 4.93319 60.3215C3.15967 59.5271 1.38616 58.9312 1.78027 58.3354C2.17439 57.7395 4.93319 58.9312 6.90376 59.7257C10.4508 61.3146 13.2096 61.5132 14.589 61.5132Z" fill="#FEFEFE"/>
<path fill-rule="evenodd" clip-rule="evenodd" d="M65.824 40.4598C66.021 40.0626 66.021 39.6653 66.021 39.2681C66.021 38.275 65.824 37.282 65.6269 36.0903C66.6122 36.2889 68.5828 36.0903 69.5681 35.8917C73.1151 34.7 75.8739 30.1318 76.8592 27.7484C75.8739 30.3304 73.1151 33.5083 69.5681 34.7C68.3857 35.0972 67.0063 35.2958 65.6269 34.8986C61.2917 33.9055 59.124 28.5429 59.124 21.79C59.124 19.6052 59.3211 17.2219 59.9123 14.8385C61.4887 11.462 65.0357 7.48973 72.3269 9.47588C72.3269 9.47588 71.7357 21.79 77.4503 23.3789C77.4503 23.3789 80.2091 20.0025 81.5885 22.9817C82.1797 23.9748 81.7856 24.9678 81.1944 26.1595C80.6033 26.954 80.2091 27.5498 79.618 28.1457C79.4209 28.3443 79.4209 28.3443 79.4209 28.3443C79.2239 28.7415 78.8297 29.1388 78.4356 29.536C77.4503 31.9194 76.4651 35.8917 77.0562 39.4667C77.0562 39.4667 75.0857 42.6446 67.0063 45.6238C66.8093 45.4252 65.4299 43.439 65.824 40.4598Z" fill="#FEFEFE"/>
</svg>
